<svg xmlns="http://www.w3.org/2000/svg" width="512.001" height="512.001" shape-rendering="geometricPrecision" text-rendering="geometricPrecision" image-rendering="optimizeQuality" fill-rule="evenodd" clip-rule="evenodd" viewBox="0 0 13546.68 13546.68"><path d="M6773.34 0c1870.35 0 3563.84 758.32 4789.43 1983.91 1225.71 1225.59 1983.91 2919.21 1983.91 4789.43 0 1870.35-758.2 3563.84-1983.91 4789.43-1225.59 1225.71-2919.08 1983.91-4789.43 1983.91-1870.22 0-3563.84-758.32-4789.43-1983.91C758.32 10337.18 0 8643.69 0 6773.34 0 4903.12 758.32 3209.5 1983.91 1983.91 3209.5 758.32 4903.12 0 6773.34 0zm1108.43 8421.03l-40.09-2.36c-93.08-5.71-184.8-14.64-275.27-26.68-90.36-12.04-176.74-25.44-259.39-40.21-83.03-15.02-163.46-32.77-241.4-53v-684.09c100.53 9.06 209.5 16.25 326.29 22.21 116.66 5.96 235.31 10.55 355.2 13.28 119.89 2.73 231.22 4.35 334.73 4.35 7.07-.13 14.52.24 21.47.24 74.84 0 149.43-7.69 222.78-22.21 54.48-10.06 105-35 146.08-72.11 31.27-33.14 48.77-77.07 48.77-122.87 0-3.35 0-6.7-.12-9.8v-52.01c.12-3.6.12-7.2.12-10.67 0-53.86-25.57-104.25-69-135.78-45.68-31.65-99.79-48.65-155.39-48.65H8054.91c-343.42 0-603.8-75.46-781.16-226.62-177.1-151.17-265.34-403.86-264.97-758.82v-146.45c0-325.29 97.55-568.67 292.9-730.02 145.08-120.63 338.45-195.97 580.09-226.37v-348.26h479.44v338.7c60.19 3.1 120.51 8.19 175.37 14.15 120.51 13.15 238.04 29.66 345.77 48.53 107.85 18.86 205.4 40.33 291.04 59.94v683.97c-136.02-11.54-289.18-21.09-459.33-28.91-170.53-7.7-325.17-11.42-464.05-10.8h-13.53c-69.87 0-139.5 5.96-208.13 17.75-56.35 7.2-108.85 32.02-150.8 70.74-34.63 38.6-53.99 88.61-53.99 140.49 0 5.09.25 9.93.87 14.65v44.68c-.37 4.84-.87 9.55-.87 14.39 0 59.21 25.82 115.18 70.5 154.03 56.34 37.97 123.36 58.33 191.5 58.33 8.81 0 17.62-.37 26.19-.99h292.9c11.79-.25 24.33-.63 36.24-.63 167.42 0 332.37 40.59 480.68 118.03 133.05 74.35 241.15 186.29 310.65 321.95 68.38 136.64 104.13 288.06 104.13 441.21v164.45c0 280.98-48.78 495.57-146.58 643.76-97.18 147.44-245.86 254.3-417.13 299.23-134.79 36.86-273.42 60.56-412.92 69.75v381.02h-477.95v-381.52zM5215.5 5084.69c282.98 0 518.66 37.11 707.81 111.2 188.64 74.1 329.76 184.56 425.08 332.74 94.57 148.19 141.98 332.62 141.98 555.15 0 133.92-20.6 256.17-59.95 368.11-40.21 111.95-98.67 212.11-175.86 301.84-77.2 89.24-171.03 168.92-281.36 238.17l845.19 1470.46h-961.11l-621.3-1248.92h-168.79v1248.92h-856.98V5084.69H5215.5zm-11.91 681.24h-136.4v793.82h129.33c129.32 0 231.83-33.76 306.05-101.65 74.72-67.77 111.83-178.97 111.83-333.36 0-117.66-33.02-206.77-99.29-267.46-66.28-60.69-169.66-91.35-311.52-91.35zm6888.26 1204.37c-12.41 339.57-56.72 670.2-129.32 989.66l1010.38 270.81c95.19-406.59 151.42-828.07 164.57-1260.47h-1045.63zm-230.97 1369.94c-98.92 321.69-227.62 630.35-382.76 922.88l905.89 522.88c199.69-371.21 363.64-764.4 487.26-1175.08l-1010.39-270.68zm-579.22 1262.45c-179.09 284.83-384.37 551.42-612.49 796.42l740.2 738.33c291.66-309.66 552.79-648.48 778.17-1011.87l-905.88-522.88zm-889.63 1073.06c-243.01 225.38-507.61 428.43-788.97 605.66l523 905.88c361.79-224.51 699.37-484.53 1008.03-774.7l-742.06-736.84zm-1129.16 802.5c-292.03 154.76-600.94 283.71-922.63 382.63l270.81 1010.39c410.68-123.49 803.74-287.44 1174.83-487.14l-523.01-905.88zm-1302.78 484.28c-319.84 72.97-650.96 116.91-989.66 129.32v1045.63c432.27-13.15 853.88-69.38 1260.34-164.57l-270.68-1010.38zm-1383.71 129.32c-339.32-12.41-670.08-56.72-989.66-129.32l-270.69 1010.38c406.59 95.19 828.07 151.42 1260.35 164.57v-1045.63zm-1369.81-230.97c-321.82-99.04-630.11-227.62-922.64-382.63l-523 905.76c371.09 199.57 764.15 363.64 1174.83 487.26l270.81-1010.39zm-1262.83-579.47c-282.97-177.98-547.95-381.89-791.7-608.14l-739.33 739.32c308.67 290.3 646.25 550.06 1008.03 774.58l523-905.76zm-1070.2-886.65c-226.5-244-430.67-509.6-608.39-792.2l-905.89 523.13c224.64 361.91 484.53 699.61 774.95 1008.4l739.33-739.33zm-804.86-1131.64c-154.89-292.28-283.72-601.07-382.76-922.88L675.41 8611.05c123.62 410.68 287.69 803.98 487.39 1175.07l905.88-523zm-484.4-1303.16C1511.42 7640 1467.36 7309 1454.95 6970.3H409.2c13.15 432.4 69.38 854.01 164.57 1260.47l1010.51-270.81zm-129.33-1383.71c12.41-339.19 56.72-669.82 129.33-989.53L573.89 5315.91c-95.19 406.46-151.54 828.07-164.69 1260.34h1045.75zm230.97-1369.81c99.04-321.94 227.75-630.48 382.88-922.76l-906-523c-199.82 371.09-363.77 764.27-487.39 1174.95l1010.51 270.81zm579.35-1262.32c177.98-283.1 381.89-548.2 608.39-792.08l-739.45-739.45c-290.29 308.79-550.31 646.37-774.95 1008.4l906.01 523.13zm887.02-1070.46c243.88-226.5 509.23-430.54 791.58-608.14l-523.13-906.01c-361.78 224.52-699.36 484.28-1008.03 774.58l739.58 739.57zm1131.76-804.98c292.04-154.77 601.07-283.59 922.52-382.63L4935.76 675.41c-410.56 123.62-803.74 287.57-1174.83 487.26l523.12 906.01zm1302.79-484.28c319.84-72.85 650.84-116.91 989.54-129.32V409.2c-432.28 13.15-853.88 69.38-1260.35 164.57l270.81 1010.63zm1383.59-129.32c339.19 12.41 669.95 56.59 989.53 129.32l270.81-1010.63c-406.46-95.19-828.07-151.42-1260.34-164.57v1045.88zm1369.81 230.97c321.69 98.91 630.11 227.74 922.51 382.63l523.13-906.01a6327.72 6327.72 0 00-1174.83-487.26l-270.81 1010.64zm1262.7 579.47c282.97 177.97 547.82 381.76 791.57 608.14l739.58-739.57c-308.66-290.17-646.24-550.06-1008.03-774.58l-523.12 906.01zm1068.09 884.29c229.61 246.98 433.65 512.82 610.63 794.18l905.88-522.88c-224.52-361.9-484.65-699.73-774.95-1008.52l-52.87 52.87-686.58 686.58-2.11-2.23zm807.09 1133.75c372.21 701.59 584.69 1482.62 613.73 2292.69h1045.63c-13.15-432.4-69.25-853.75-164.57-1260.22l-1010.38 270.69c-29.29-128.58-63.17-255.42-101.65-380.28l1010.39-270.68c-123.62-410.68-287.57-803.99-487.26-1175.08l-905.89 522.88zM6773.34 1819.34c2736.14 0 4954.25 2218.11 4954.25 4954 0 2736.14-2218.11 4954.25-4954.25 4954.25-2736.02 0-4954.12-2218.11-4954.12-4954.25 0-2735.89 2218.1-4954 4954.12-4954z"/></svg>